<svg width="384" height="863" viewBox="0 0 384 863" fill="none" xmlns="http://www.w3.org/2000/svg">
<g clip-path="url(#clip0_2006_79)">
<g clip-path="url(#clip1_2006_79)">
<path d="M335.523 28.2354C334.839 28.2189 334.16 28.2257 333.49 28.2498C313.021 29.0198 299.479 49.2932 319.676 88.6527C339.23 71.0176 356.081 90.5754 363.038 108.725C339.379 107.494 325.278 106.862 299.906 90.9459C309.322 106.765 317.371 113.361 335.94 118.764C329.031 119.719 321.795 119.965 314.615 119.376C334.496 134.87 357.661 134.115 378.925 124.589C381.489 124.618 384.038 124.609 386.556 124.547L386.457 120.815C387.561 120.202 388.664 119.592 389.752 118.935L367.506 43.1515C357.502 33.4398 345.783 28.4841 335.523 28.2351V28.2354ZM284.928 575.108L217.585 683.698L170.554 660.244L155.249 675.835L153.63 706.462L170.305 687.7L211.242 695.152L151.517 734.056L163.837 774.066L168.189 740.411L179.761 746.061L217.836 705.773L216.217 786.209L241.226 798.625L230.528 772.549L217.088 771.583L241.477 773.238L228.537 702.877L273.7 728.675L273.714 728.661L274.945 752.819L292.118 730.333L291.121 709.913L232.018 691.565L304.807 616.788L311.11 582.21L284.928 575.108L284.928 575.108ZM485.072 575.108L458.89 582.209L465.19 616.787L537.979 691.564L478.879 709.912L477.882 730.333L495.052 752.818L496.286 728.66L496.297 728.674L541.463 702.876L528.523 773.237L552.912 771.583L539.472 772.548L528.771 798.625L553.78 786.208L552.161 705.772L590.238 746.061L601.808 740.41L606.163 774.065L618.48 734.055L558.758 695.151L599.694 687.699L616.367 706.462L614.748 675.835L599.443 660.244L552.412 683.697L485.072 575.107L485.072 575.108Z" fill="#D4AF37" style="fill:#D4AF37;fill:color(display-p3 0.8314 0.6863 0.2157);fill-opacity:1;"/>
<path d="M367.019 24.0029C364.369 24.057 362.027 24.8098 360.046 26.4578C341.927 41.526 377.63 93.822 380.828 116.867C381.894 125.288 364.043 122.774 364.043 130.456C368.019 179.993 336.687 188.043 323.042 240.854C321.675 240.862 320.314 240.87 318.778 240.839C267.333 240.839 216.326 203.978 216.326 156.698C216.326 131.564 226.543 113.917 239.174 94.3914C246.593 95.7287 253.346 96.4987 258.633 96.4987C281.967 96.4987 294.572 82.6652 295.522 69.0882C295.522 56.8485 286.536 47.5949 272.597 47.5949C250.904 47.5949 211.552 69.9995 171.788 69.9995C175.717 73.3008 182.237 76.7432 190.04 80.0446C166.783 103.214 151.203 134.386 145.299 167.774L84.433 275.708C74.1651 293.838 52.5749 329.275 20 356.942C59.3775 356.942 85.485 357.993 118.804 299.557L149.97 244.196C152.305 251.369 155.156 258.374 158.493 265.204L96.4192 375.302C86.1004 393.605 64.7177 428.727 32.0129 456.563C71.3921 456.563 97.4986 457.621 130.793 399.184L184.213 304.371C188.191 309.096 192.402 313.65 196.843 318.119L121.474 451.901C112.129 468.381 93.932 498.47 66.4377 524.655L57.0674 533.135C78.1175 533.135 95.3931 533.394 112.002 524.681C126.43 517.168 140.369 502.881 155.848 475.724L229.341 345.302C234.142 348.689 239.123 351.959 244.232 355.062L154.539 514.208L148.559 524.457C136.903 543.813 117.521 572.1 90.1563 595.387C129.509 595.387 155.618 596.407 188.913 538.003L196.431 524.681L281.272 374.136C286.716 376.47 292.287 378.63 297.934 380.68L216.791 524.681L193.556 565.894C183.366 583.887 161.597 619.494 129.15 647.076C168.528 647.076 194.635 648.072 227.955 589.668L264.562 524.681L326.879 419.383C328.169 426.413 329.772 434.255 331.822 443.541L242.949 601.254L297.942 589.197L295.121 669.894L347.875 587.027C347.875 769.887 301.277 785.814 263.657 770.948C268.034 805.078 319.06 819.337 346.01 795.068L384.999 843L423.987 795.068C450.937 819.337 501.963 805.078 506.341 770.948C468.72 785.814 423.303 769.887 423.303 587.027L474.876 669.894L473.236 589.197L528.229 601.254L438.124 443.439C440.295 434.634 442.137 427.304 443.813 420.555L505.437 524.681L542.045 589.668C575.365 648.072 601.472 647.076 640.85 647.076C608.403 619.494 586.634 583.887 576.443 565.894L553.208 524.681L472.065 380.68C477.713 378.63 483.284 376.47 488.727 374.136L573.568 524.681L581.087 538.003C614.382 596.407 640.491 595.387 679.843 595.387C652.479 572.1 633.097 543.813 621.441 524.457L615.461 514.208L525.768 355.062C530.876 351.959 535.857 348.689 540.659 345.301L614.152 475.724C629.63 502.881 643.57 517.168 657.998 524.681C674.607 533.394 691.882 533.135 712.932 533.135L703.562 524.654C676.068 498.469 657.871 468.381 648.526 451.901L573.157 318.119C577.598 313.649 581.809 309.096 585.787 304.371L639.206 399.184C672.501 457.621 698.608 456.563 737.987 456.563C705.282 428.727 683.899 393.605 673.581 375.302L611.507 265.204C614.844 258.374 617.695 251.369 620.03 244.196L651.195 299.557C684.515 357.993 710.622 356.941 750 356.941C717.425 329.275 695.835 293.838 685.567 275.708L624.701 167.774C618.797 134.385 603.216 103.214 579.96 80.0444C587.763 76.743 594.283 73.3007 598.211 69.9993C558.448 69.9993 519.096 47.5948 497.403 47.5948C483.464 47.5948 474.478 56.8482 474.478 69.0878C475.428 82.6649 488.032 96.4986 511.366 96.4986C516.654 96.4986 523.407 95.7286 530.826 94.3913C543.457 113.917 553.673 131.564 553.673 156.698C553.673 199.988 510.908 234.521 464.202 240.045C461.928 193.505 453.386 136.427 434.119 75.9436C448.641 71.2164 457.303 65.3098 465.164 52.31C430.635 69.2823 388.601 23.5621 367.019 24.0032V24.0029Z" fill="#D4AF37" style="fill:#D4AF37;fill:color(display-p3 0.8314 0.6863 0.2157);fill-opacity:1;"/>
<path d="M364.414 40.5959C363.255 39.9162 361.989 40.5814 362.256 43.0333C363.162 51.2763 366.253 57.3182 369.41 63.4635C370.569 65.7089 372.035 67.1123 374.752 64.9113C378.43 61.9274 381.8 58.3965 384.438 54.2751C377.004 47.9524 376.205 47.5832 370.636 62.4149C369.983 56.4023 370.236 50.0058 371.408 44.7616" fill="#D4AF37" style="fill:#D4AF37;fill:color(display-p3 0.8314 0.6863 0.2157);fill-opacity:1;"/>
</g>
</g>
<defs>
<clipPath id="clip0_2006_79">
<rect width="384" height="863" rx="5" fill="white" style="fill:white;fill-opacity:1;"/>
</clipPath>
<clipPath id="clip1_2006_79">
<rect width="730" height="819" fill="white" style="fill:white;fill-opacity:1;" transform="translate(20 24)"/>
</clipPath>
</defs>
</svg>
