<svg width="543" height="766" viewBox="0 0 543 766" fill="none" xmlns="http://www.w3.org/2000/svg">
<g clip-path="url(#clip0_2002_8)">
<g clip-path="url(#clip1_2002_8)">
<rect x="388" y="620" width="232" height="135" rx="15" transform="rotate(-180 388 620)" fill="#D4AF37" style="fill:#D4AF37;fill:color(display-p3 0.8314 0.6863 0.2157);fill-opacity:1;"/>
<rect width="232" height="15" transform="matrix(-1 0 0 -1 388 560)" fill="#6B0A2E" style="fill:#6B0A2E;fill:color(display-p3 0.4196 0.0392 0.1804);fill-opacity:1;mix-blend-mode:darken"/>
<circle cx="272" cy="552" r="37.5" transform="rotate(-180 272 552)" fill="#D4AF37" stroke="#6B0A2E" style="fill:#D4AF37;fill:color(display-p3 0.8314 0.6863 0.2157);fill-opacity:1;stroke:#6B0A2E;stroke:color(display-p3 0.4196 0.0392 0.1804);stroke-opacity:1;" stroke-width="15"/>
</g>
</g>
<path d="M272 99H480C491.046 99 500 107.954 500 119V122C500 133.046 491.046 142 480 142H272V99Z" fill="#D4AF37" style="fill:#D4AF37;fill:color(display-p3 0.8314 0.6863 0.2157);fill-opacity:1;"/>
<path d="M272 173H412C423.046 173 432 181.954 432 193V196C432 207.046 423.046 216 412 216H272V173Z" fill="#D4AF37" style="fill:#D4AF37;fill:color(display-p3 0.8314 0.6863 0.2157);fill-opacity:1;"/>
<defs>
<clipPath id="clip0_2002_8">
<rect x="408" y="640" width="136" height="173" rx="5" transform="rotate(-180 408 640)" fill="white" style="fill:white;fill-opacity:1;"/>
</clipPath>
<clipPath id="clip1_2002_8">
<rect width="232" height="135" fill="white" style="fill:white;fill-opacity:1;" transform="matrix(-1 0 0 -1 388 620)"/>
</clipPath>
</defs>
</svg>
